<svg width="28" height="25" viewBox="0 0 28 25" fill="none" xmlns="http://www.w3.org/2000/svg">
<g clip-path="url(#clip0_2339_36035)">
<path d="M18.8888 21.0725H20.9399V18.8216C20.9399 15.8746 20.9399 12.9269 20.9399 9.97847C20.9399 9.27217 20.9792 9.23887 21.6965 9.23657C22.4137 9.23427 23.124 9.26643 23.8355 9.23657C24.3954 9.21016 24.5677 9.42032 24.5643 9.96928C24.5434 13.4319 24.5515 16.8945 24.5504 20.3582V21.1047H26.104C26.3793 21.1047 26.7252 21.0955 26.6824 21.4641C26.6639 21.6066 26.3053 21.8087 26.104 21.8087C21.4211 21.8294 16.7336 21.827 12.0553 21.827H2.56923C2.45354 21.827 2.31704 21.8649 2.22217 21.8167C2.06314 21.7155 1.91368 21.6002 1.77563 21.4722C1.91793 21.3504 2.04865 21.146 2.20482 21.1276C2.58871 21.0807 2.9766 21.0753 3.36166 21.1116C3.78738 21.146 3.94008 21.0059 3.92736 20.5683C3.89844 19.5554 3.93777 18.5402 3.90885 17.5272C3.89496 17.0162 4.06386 16.7853 4.60295 16.8026C5.37341 16.8278 6.14502 16.8244 6.91664 16.8026C7.39557 16.7922 7.55754 16.9978 7.54944 17.4606C7.52862 18.6458 7.54249 19.8299 7.54249 21.0587H9.57044C9.58201 20.829 9.60283 20.5994 9.60283 20.3834C9.60283 17.9916 9.60283 15.6001 9.60283 13.2091C9.60283 12.52 9.6491 12.4683 10.3617 12.4683C11.0558 12.4683 11.7499 12.4683 12.444 12.4683C13.1948 12.4683 13.2318 12.5108 13.2318 13.2401C13.2318 15.6327 13.2318 18.0241 13.2318 20.4145V21.0656H15.2656V20.3857C15.2656 18.4334 15.2771 16.481 15.2575 14.5286C15.2575 14.0348 15.4183 13.8327 15.9238 13.8499C16.6943 13.874 17.4659 13.8763 18.2375 13.8499C18.75 13.8304 18.9038 14.0405 18.8992 14.5286C18.8796 16.4615 18.8911 18.3932 18.8911 20.326L18.8888 21.0725ZM23.8088 21.0656V10.006H21.693V21.0656H23.8088ZM12.4602 21.1035V13.2286H10.3235C10.3235 15.769 10.3235 18.2703 10.3386 20.7716C10.3386 20.8865 10.5526 21.0817 10.6764 21.0886C11.249 21.1231 11.8251 21.1012 12.4602 21.1012V21.1035ZM16.0302 14.6079V21.0599H18.123V14.6079H16.0302ZM4.67583 17.5801V21.1012C5.304 21.1012 5.89746 21.1162 6.48745 21.0874C6.55916 21.0685 6.62478 21.0317 6.67805 20.9804C6.73132 20.9291 6.77045 20.8652 6.7917 20.7946C6.81484 19.7323 6.80558 18.6688 6.80558 17.5789L4.67583 17.5801Z" fill="black"/>
<path d="M7.07525 11.7688C7.24762 12.5991 6.8971 13.171 6.25158 13.4099C5.94425 13.5243 5.60769 13.5356 5.29323 13.4424C4.97877 13.3491 4.70369 13.1562 4.50995 12.8932C4.31621 12.6302 4.21446 12.3115 4.2202 11.9857C4.22595 11.66 4.33888 11.345 4.54178 11.0889C4.95246 10.5652 5.6188 10.4285 6.321 10.6525C6.43707 10.684 6.55832 10.6919 6.67756 10.676C6.7968 10.66 6.9116 10.6204 7.01511 10.5595C7.9186 9.90829 8.80126 9.22612 9.66542 8.52326C9.74749 8.44439 9.81281 8.35 9.85752 8.24565C9.90223 8.14131 9.92541 8.02913 9.92571 7.91573C9.89332 7.0096 10.3248 6.36417 11.123 6.21488C11.9513 6.05983 12.5911 6.50543 12.8942 7.39893C12.9321 7.48675 12.9879 7.56579 13.0582 7.63104C13.1285 7.69628 13.2117 7.7463 13.3025 7.77792C13.9874 7.96971 14.6815 8.13624 15.3849 8.26601C15.4864 8.27613 15.589 8.26601 15.6865 8.23623C15.784 8.20645 15.8746 8.15761 15.9529 8.09259C16.4723 7.63321 17.0195 7.44717 17.702 7.70786C17.7945 7.73458 17.8918 7.74102 17.9871 7.72675C18.0824 7.71247 18.1734 7.67781 18.2538 7.62517C19.2244 6.87064 20.1846 6.10232 21.1147 5.29956C21.2616 5.17323 21.2917 4.84822 21.2813 4.61967C21.2489 3.91452 21.5612 3.338 22.1674 3.08534C22.4634 2.96355 22.7903 2.93637 23.1025 3.00759C23.4148 3.07881 23.6969 3.24488 23.9096 3.4827C24.1189 3.72354 24.2452 4.02445 24.2702 4.34155C24.2952 4.65865 24.2175 4.97538 24.0485 5.24558C23.8659 5.54235 23.5828 5.76486 23.25 5.87324C22.9172 5.98162 22.5564 5.96879 22.2322 5.83703C21.9395 5.71185 21.7556 5.72219 21.515 5.92661C20.6149 6.6754 19.686 7.39319 18.7941 8.15231C18.7152 8.2319 18.6539 8.32692 18.6141 8.43132C18.5742 8.53572 18.5567 8.64721 18.5627 8.75869C18.6645 9.65334 18.2295 10.3665 17.4059 10.5422C16.6111 10.718 15.8869 10.2368 15.6012 9.39379C15.5602 9.29952 15.5006 9.21436 15.4259 9.14335C15.3512 9.07233 15.2629 9.01691 15.1662 8.98034C14.7116 8.8253 14.235 8.73917 13.7688 8.62203C13.2227 8.48651 12.7334 8.3085 12.2406 8.88388C11.8935 9.28354 11.3151 9.24334 10.776 9.03892C10.6685 9.00628 10.5553 8.99667 10.4438 9.01073C10.3324 9.02479 10.2251 9.06219 10.1293 9.12046C9.24318 9.76359 8.37477 10.4308 7.52411 11.1222C7.32976 11.2807 7.22333 11.5506 7.07525 11.7688ZM5.72175 11.2612C5.51033 11.2679 5.30963 11.3552 5.16124 11.5048C5.01285 11.6545 4.92814 11.8551 4.92469 12.0651C4.93973 12.2653 5.0274 12.4532 5.17142 12.5941C5.31544 12.7349 5.50605 12.8192 5.70787 12.8311C5.92001 12.8242 6.12094 12.7349 6.26741 12.5824C6.41389 12.4299 6.4942 12.2264 6.49106 12.0157C6.48832 11.8148 6.4061 11.6231 6.26216 11.4819C6.11821 11.3408 5.9241 11.2615 5.72175 11.2612ZM22.7748 5.2272C22.8808 5.22468 22.9852 5.20132 23.082 5.15847C23.1789 5.11561 23.2662 5.05411 23.3389 4.97753C23.4116 4.90095 23.4683 4.8108 23.5057 4.71231C23.5431 4.61383 23.5605 4.50895 23.5568 4.40376C23.5455 4.20172 23.4538 4.01242 23.302 3.87741C23.1501 3.7424 22.9505 3.67272 22.747 3.68368C22.5428 3.69205 22.3501 3.77942 22.21 3.92709C22.0699 4.07476 21.9936 4.271 21.9974 4.47382C22.0001 4.67597 22.0835 4.8688 22.2292 5.01002C22.3749 5.15125 22.5711 5.22935 22.7748 5.2272ZM12.1908 7.68374C12.1949 7.48114 12.1188 7.28503 11.9789 7.13751C11.8389 6.98999 11.6463 6.90283 11.4423 6.89476C11.3362 6.88922 11.2301 6.90601 11.131 6.94403C11.0318 6.98204 10.9419 7.04043 10.8671 7.11536C10.7923 7.19028 10.7342 7.28006 10.6968 7.37881C10.6594 7.47755 10.6434 7.58303 10.6499 7.68834C10.6529 7.8906 10.7349 8.0838 10.8786 8.22716C11.0224 8.37051 11.2166 8.4528 11.4204 8.45665C11.623 8.44701 11.8145 8.36226 11.9572 8.21914C12.0999 8.07602 12.1832 7.88496 12.1908 7.68374ZM17.0785 8.29817C16.871 8.30854 16.6759 8.39951 16.5353 8.55146C16.3948 8.70341 16.3202 8.90413 16.3274 9.11028C16.3347 9.31643 16.4234 9.51145 16.5743 9.65324C16.7252 9.79503 16.9263 9.87221 17.134 9.8681C17.3377 9.85653 17.5285 9.76557 17.665 9.61501C17.8015 9.46446 17.8726 9.2665 17.8628 9.06419C17.8533 8.86191 17.7672 8.67065 17.6218 8.52863C17.4764 8.38662 17.2824 8.30431 17.0785 8.29817Z" fill="black"/>
</g>
<defs>
<clipPath id="clip0_2339_36035">
<rect width="24.9057" height="18.8679" fill="white" transform="translate(1.77686 2.96875)"/>
</clipPath>
</defs>
</svg>
