<svg width="20" height="19" viewBox="0 0 20 19" fill="none" xmlns="http://www.w3.org/2000/svg">
<path d="M0.162 6.50035C-5.96046e-08 7.60335 0 9.05035 0 11.0003C0 14.7713 -1.19209e-07 16.6573 1.172 17.8283C2.343 19.0003 4.229 19.0003 8 19.0003H12C15.771 19.0003 17.657 19.0003 18.828 17.8283C20 16.6573 20 14.7713 20 11.0003C20 9.05035 20 7.60435 19.838 6.50035C17.561 7.98035 16.102 8.92435 14.75 9.50535V10.0003C14.7523 10.1993 14.6754 10.3909 14.5363 10.5332C14.3973 10.6754 14.2074 10.7566 14.0085 10.7588C13.8096 10.7611 13.6179 10.6842 13.4757 10.5452C13.3334 10.4061 13.2523 10.2163 13.25 10.0173C11.1197 10.5789 8.88028 10.5789 6.75 10.0173C6.74775 10.2163 6.66657 10.4061 6.52432 10.5452C6.38207 10.6842 6.19041 10.7611 5.9915 10.7588C5.79259 10.7566 5.60272 10.6754 5.46366 10.5332C5.3246 10.3909 5.24775 10.1993 5.25 10.0003V9.50535C3.898 8.92335 2.44 7.98035 0.162 6.50035Z" fill="#1C252E"/>
<path fill-rule="evenodd" clip-rule="evenodd" d="M8.581 0.250349H8.561C8.447 0.250349 8.359 0.250349 8.275 0.255349C7.75543 0.286934 7.25549 0.465331 6.8333 0.769804C6.41111 1.07428 6.084 1.49232 5.89 1.97535C5.84738 2.08875 5.80737 2.20311 5.77 2.31835L5.766 2.33035C5.66312 2.60289 5.48909 2.84288 5.262 3.02535C5.034 3.03335 4.817 3.04235 4.609 3.05535C2.965 3.15135 1.922 3.42135 1.172 4.17235C0.92801 4.41561 0.727748 4.69909 0.58 5.01035C0.638 5.03035 0.694 5.05635 0.747 5.09135C2.847 6.45635 4.167 7.31135 5.264 7.85835C5.2998 7.67564 5.40228 7.51279 5.5515 7.40145C5.70072 7.29011 5.88601 7.23826 6.07135 7.25597C6.25668 7.27368 6.4288 7.35969 6.55424 7.49727C6.67967 7.63485 6.74945 7.81417 6.75 8.00035V8.45835C8.87 9.09835 11.13 9.09835 13.25 8.45835V8.00035C13.2493 7.81326 13.3185 7.63266 13.444 7.49397C13.5696 7.35528 13.7425 7.26853 13.9287 7.25075C14.1149 7.23296 14.3011 7.28543 14.4506 7.39784C14.6002 7.51026 14.7023 7.6745 14.737 7.85835C15.833 7.31035 17.153 6.45635 19.253 5.09135C19.3051 5.05757 19.3612 5.03036 19.42 5.01035C19.2718 4.69933 19.0716 4.41592 18.828 4.17235C18.078 3.42235 17.035 3.15235 15.391 3.05435C15.194 3.04335 14.988 3.03435 14.773 3.02635C14.521 2.82145 14.3264 2.5548 14.208 2.25235L14.205 2.24335C14.169 2.13635 14.142 2.05235 14.11 1.97435C13.9158 1.49151 13.5887 1.07367 13.1665 0.769386C12.7443 0.465097 12.2445 0.286849 11.725 0.255349C11.6301 0.250873 11.535 0.249205 11.44 0.250349H8.58H8.581ZM12.818 2.81635L12.813 2.80535L12.808 2.79335L12.804 2.78135L12.798 2.76635L12.788 2.73635L12.785 2.72835L12.783 2.72135L12.781 2.71535C12.7616 2.65446 12.7406 2.5941 12.718 2.53435C12.6299 2.31477 12.4812 2.12472 12.2893 1.98629C12.0974 1.84786 11.8702 1.76674 11.634 1.75235C11.5624 1.74984 11.4907 1.74918 11.419 1.75035H8.581C8.438 1.75035 8.398 1.75035 8.366 1.75235C8.12983 1.76674 7.90259 1.84786 7.7107 1.98629C7.51881 2.12472 7.37015 2.31477 7.282 2.53435L7.279 2.54135L7.271 2.56235C7.24371 2.63846 7.21804 2.71515 7.194 2.79235L7.192 2.79835L7.189 2.80535L7.187 2.81335L7.177 2.84335L7.171 2.85835L7.167 2.87035L7.162 2.88235L7.158 2.89235L7.157 2.89335C7.14307 2.92964 7.1284 2.96565 7.113 3.00135L8 3.00035H12.896C12.868 2.93989 12.842 2.87852 12.818 2.81635Z" fill="#1C252E"/>
</svg>
