<svg width="48" height="38" viewBox="0 0 48 38" fill="none" xmlns="http://www.w3.org/2000/svg">
<path d="M0 10.8774C0 4.86999 4.87 0 10.8774 0H37.1226C43.13 0 48 4.87 48 10.8774V26.4559C48 32.4633 43.13 37.3333 37.1226 37.3333H10.8774C4.87 37.3333 0 32.4633 0 26.4559V10.8774Z" fill="url(#paint0_linear_2339_36137)"/>
<path d="M23.0352 9.33203C22.4829 9.33203 22.0352 9.77975 22.0352 10.332V16.7005H15.6667C15.1145 16.7005 14.6667 17.1482 14.6667 17.7005V19.6303C14.6667 20.1826 15.1145 20.6303 15.6667 20.6303H22.0352V26.9987C22.0352 27.551 22.4829 27.9987 23.0352 27.9987H24.965C25.5173 27.9987 25.965 27.551 25.965 26.9987V20.6303H32.3334C32.8857 20.6303 33.3334 20.1826 33.3334 19.6303V17.7005C33.3334 17.1482 32.8857 16.7005 32.3334 16.7005H25.965V10.332C25.965 9.77975 25.5173 9.33203 24.965 9.33203H23.0352Z" fill="white"/>
<defs>
<linearGradient id="paint0_linear_2339_36137" x1="0.0333288" y1="18.6644" x2="48.0214" y2="18.6644" gradientUnits="userSpaceOnUse">
<stop stop-color="#284BA7"/>
<stop offset="1" stop-color="#789FE4"/>
</linearGradient>
</defs>
</svg>
