<svg width="29" height="27" viewBox="0 0 29 27" fill="none" xmlns="http://www.w3.org/2000/svg">
<path d="M8.80758 26.2741C8.80758 24.1301 8.80758 22.0716 8.80758 19.9775C8.54467 19.9633 8.34019 19.9419 8.143 19.9419C7.21551 19.9276 6.28802 19.9633 5.36783 19.8849C4.46955 19.7994 3.66621 19.4006 2.95781 18.8592C1.46067 17.7338 0.693851 16.2523 0.708457 14.379C0.730366 11.2449 0.693851 8.11089 0.730366 4.97685C0.737669 4.09362 1.16855 3.31011 1.66516 2.58358C2.4539 1.44393 3.52015 0.667544 4.88582 0.347017C5.39704 0.225929 5.94477 0.211684 6.4779 0.204561C11.9625 0.197438 17.4544 0.197438 22.9464 0.204561C25.4513 0.204561 27.8759 2.2773 28.1243 4.71331C28.263 6.08801 28.2265 7.48408 28.2338 8.87303C28.2411 10.8318 28.2119 12.7906 28.1973 14.7494C28.1827 16.5372 27.3063 17.8834 25.8895 18.9376C24.8598 19.7068 23.6694 19.9561 22.3913 19.9419C20.4414 19.9276 18.4915 19.949 16.5489 19.9348C16.2567 19.9348 16.0522 20.0131 15.8332 20.1983C13.6203 22.1286 11.4002 24.0446 9.18004 25.9678C9.0924 26.0533 8.99016 26.1316 8.80758 26.2741ZM7.58797 11.9572C8.79298 12.0427 9.61823 10.9743 9.61823 10.0198C9.61823 8.93714 8.71995 8.12514 7.58066 8.13938C6.47059 8.1465 5.67456 8.99412 5.68916 10.148C5.71107 11.1452 6.56553 11.9643 7.58797 11.9572ZM23.4211 9.99844C23.4138 8.96563 22.552 8.12514 21.4931 8.12514C20.3465 8.12514 19.4701 8.97275 19.4701 10.0625C19.4701 11.0669 20.3976 11.9572 21.4346 11.9572C22.5812 11.9643 23.4284 11.131 23.4211 9.99844ZM16.5196 10.0412C16.5196 8.93714 15.6433 8.11801 14.4748 8.13226C13.4377 8.13938 12.5687 9.03686 12.576 10.091C12.5833 11.1167 13.4743 11.9643 14.5551 11.9643C15.6433 11.9643 16.5196 11.1025 16.5196 10.0412Z" fill="#BBBBBB"/>
</svg>
