<svg width="24" height="24" viewBox="0 0 24 24" fill="none" xmlns="http://www.w3.org/2000/svg">
<path d="M3 6.37428C3 5.89028 3.345 5.49728 3.771 5.49728H6.436C6.965 5.48128 7.432 5.09828 7.612 4.53228L7.642 4.43228L7.757 4.04128C7.827 3.80128 7.888 3.59128 7.974 3.40428C8.312 2.66528 8.938 2.15228 9.661 2.02128C9.845 1.98828 10.039 1.98828 10.261 1.98828H13.739C13.962 1.98828 14.156 1.98828 14.339 2.02128C15.062 2.15228 15.689 2.66528 16.026 3.40428C16.112 3.59128 16.173 3.80028 16.244 4.04128L16.358 4.43228L16.388 4.53228C16.568 5.09828 17.128 5.48228 17.658 5.49728H20.228C20.655 5.49728 21 5.89028 21 6.37428C21 6.85828 20.655 7.25128 20.229 7.25128H3.77C3.345 7.25128 3 6.85828 3 6.37428Z" fill="#FF3D00"/>
<path fill-rule="evenodd" clip-rule="evenodd" d="M11.596 21.9883H12.404C15.187 21.9883 16.578 21.9883 17.484 21.1023C18.388 20.2163 18.48 18.7633 18.665 15.8573L18.932 11.6693C19.032 10.0923 19.082 9.30328 18.629 8.80428C18.175 8.30428 17.409 8.30428 15.876 8.30428H8.124C6.591 8.30428 5.824 8.30428 5.371 8.80428C4.917 9.30428 4.967 10.0923 5.068 11.6693L5.335 15.8573C5.52 18.7633 5.612 20.2173 6.517 21.1023C7.422 21.9883 8.813 21.9883 11.596 21.9883ZM10.246 12.1773C10.206 11.7433 9.838 11.4273 9.426 11.4703C9.013 11.5133 8.713 11.9003 8.754 12.3343L9.254 17.5973C9.294 18.0313 9.662 18.3473 10.074 18.3043C10.487 18.2613 10.787 17.8743 10.746 17.4403L10.246 12.1773ZM14.575 11.4703C14.987 11.5133 15.288 11.9003 15.246 12.3343L14.746 17.5973C14.706 18.0313 14.337 18.3473 13.926 18.3043C13.513 18.2613 13.213 17.8743 13.254 17.4403L13.754 12.1773C13.794 11.7433 14.164 11.4273 14.575 11.4703Z" fill="#FF3D00"/>
</svg>
