<svg width="26" height="25" viewBox="0 0 26 25" fill="none" xmlns="http://www.w3.org/2000/svg">
<g clip-path="url(#clip0_2339_36028)">
<path d="M13.5483 0.585945C20.1083 0.578499 25.462 5.9099 25.4769 12.4774C25.4918 19.0523 20.1381 24.4209 13.5632 24.4134C6.99572 24.4134 1.65687 19.0671 1.64942 12.5071C1.64198 5.94713 6.98082 0.593391 13.5483 0.585945ZM13.5632 1.39012C7.42759 1.39012 2.46849 6.34177 2.4536 12.4774C2.44615 18.6353 7.4127 23.6093 13.5632 23.6093C19.6987 23.6093 24.6578 18.6576 24.6727 12.522C24.6802 6.36411 19.7136 1.39012 13.5632 1.39012Z" fill="black"/>
<path d="M13.1687 6.1571C13.1687 5.93372 13.1687 5.73268 13.1687 5.53908C13.1687 5.26357 13.191 4.98807 13.5559 4.98062C13.9207 4.97317 13.958 5.24123 13.958 5.52419C13.958 5.71778 13.958 5.91883 13.958 6.10498C14.4718 6.23156 14.9781 6.31347 15.4472 6.48473C16.512 6.87193 17.3683 7.51974 17.7704 8.62921C17.8672 8.88982 17.9118 9.18022 17.9342 9.46317C17.9491 9.68655 17.8299 9.88015 17.5693 9.90249C17.3162 9.92483 17.1598 9.7759 17.1375 9.53763C17.0258 8.15266 16.0727 7.54952 14.9111 7.14743C14.6281 7.05063 14.3154 7.02085 13.9803 6.95383C13.9803 8.71111 13.9803 10.4088 13.9803 12.1214C14.3452 12.1959 14.71 12.2555 15.0674 12.3448C16.1173 12.6129 16.9885 13.1564 17.547 14.1021C18.2469 15.286 17.964 16.7231 16.8619 17.6911C16.1918 18.2793 15.4025 18.6219 14.5313 18.7633C14.3526 18.7931 14.1665 18.8229 13.958 18.8601C13.958 19.0686 13.958 19.2622 13.958 19.4633C13.958 19.7388 13.9356 20.0143 13.5708 20.0217C13.1836 20.0292 13.1687 19.7313 13.1687 19.4484C13.1687 19.2622 13.1687 19.0761 13.1687 18.8974C12.6549 18.7708 12.1486 18.6889 11.6795 18.5176C10.6147 18.1304 9.75837 17.4826 9.35629 16.3731C9.25949 16.1125 9.21481 15.8221 9.19247 15.5392C9.17758 15.3158 9.28927 15.1222 9.54988 15.0999C9.80305 15.0775 9.95942 15.2264 9.98176 15.4647C10.0786 16.7603 10.9349 17.3933 12.0294 17.7953C12.372 17.9219 12.7368 17.974 13.1389 18.0708C13.1389 16.2987 13.1389 14.601 13.1389 12.9107C12.6624 12.799 12.1858 12.7097 11.7316 12.5682C11.0168 12.3523 10.4062 11.9576 9.91474 11.3843C8.83506 10.1184 8.97653 8.43561 10.2573 7.31125C11.0763 6.59642 12.0518 6.26879 13.1687 6.1571ZM13.1463 7.02085C12.0518 6.92405 10.5923 7.78035 10.1679 8.7409C9.96687 9.18766 9.94453 9.64932 10.0934 10.1184C10.4285 11.1683 11.7688 12.0246 13.1463 12.0172C13.1463 10.3493 13.1463 8.68133 13.1463 7.02085ZM13.9803 18.0411C15.2015 17.8772 16.2365 17.4901 16.8843 16.4178C17.1449 15.9859 17.197 15.5094 17.0779 15.018C16.8024 13.8787 15.3951 12.9777 13.9803 13.0075C13.9803 14.6605 13.9803 16.3136 13.9803 18.0411Z" fill="black"/>
</g>
<defs>
<clipPath id="clip0_2339_36028">
<rect width="23.8275" height="23.8275" fill="white" transform="translate(1.64941 0.585938)"/>
</clipPath>
</defs>
</svg>
