<svg width="8" height="4" viewBox="0 0 8 4" fill="none" xmlns="http://www.w3.org/2000/svg">
<path d="M3.99373 3.99865C3.86045 3.99891 3.73128 3.95243 3.62866 3.86729L0.206082 1.01163C-0.0364985 0.809758 -0.0696991 0.449215 0.131926 0.206336C0.333551 -0.0365434 0.693651 -0.069785 0.936231 0.132088L3.99373 2.69076L7.05123 0.223469C7.16908 0.12765 7.32021 0.0828175 7.47117 0.0988968C7.62213 0.114976 7.76046 0.190641 7.85554 0.309139C7.96114 0.427854 8.01255 0.585268 7.99739 0.743518C7.98224 0.901768 7.90189 1.04653 7.77568 1.14299L4.3531 3.90156C4.24752 3.97324 4.12099 4.00743 3.99373 3.99865Z" fill="#637381"/>
</svg>
