<svg width="21" height="20" viewBox="0 0 21 20" fill="none" xmlns="http://www.w3.org/2000/svg">
<path fill-rule="evenodd" clip-rule="evenodd" d="M17.9194 16.7742H13.7261C12.7165 16.7742 11.6089 20 10.5003 20C9.39982 20 8.29842 16.7742 7.29512 16.7742H3.08125C1.8336 16.7742 0.823157 15.7629 0.823157 14.5161L0.822266 2.2581C0.822266 1.01133 1.8336 0 3.08036 0H17.9194C19.1662 0 20.1775 1.01133 20.1775 2.2581V14.5161C20.1775 15.7629 19.1671 16.7742 17.9194 16.7742H17.9194ZM18.887 2.58083C18.887 1.86826 18.3091 1.29037 17.5966 1.29037H3.40317C2.6906 1.29037 2.11271 1.86826 2.11271 2.58083V14.1941C2.11271 14.9067 2.6906 15.4846 3.40317 15.4846H7.93895C8.77013 15.4846 9.61468 18.3884 10.4994 18.3884C11.3502 18.3884 12.2394 15.4846 13.0402 15.4846H17.5966C18.3091 15.4846 18.887 14.9067 18.887 14.1941V2.58083Z" stroke="white" stroke-width="1.5" fill="none"/>
</svg> 