<svg width="25" height="15" viewBox="0 0 25 15" fill="none" xmlns="http://www.w3.org/2000/svg">
<g clip-path="url(#clip0_2339_36049)">
<path d="M15.9918 6.6457C16.0039 8.4256 14.4419 9.88916 12.5108 9.90718C10.607 9.9252 9.03561 8.47165 9.00767 6.66572C8.98044 4.90385 10.579 3.40825 12.4908 3.40625C13.4154 3.40606 14.3025 3.74661 14.9585 4.35356C15.6144 4.96051 15.9859 5.78453 15.9918 6.6457ZM11.2984 6.65772C11.2984 7.02411 11.2984 7.39183 11.2984 7.75689C11.3042 8.24074 11.4876 8.34218 11.9319 8.10593C12.6355 7.73264 13.3375 7.35713 14.0378 6.97939C14.4362 6.7645 14.4369 6.55027 14.0306 6.32803C13.3141 5.93472 12.5915 5.54786 11.8631 5.16746C11.5134 4.9826 11.3135 5.08471 11.3013 5.45844C11.2891 5.85553 11.2992 6.25529 11.2992 6.65505L11.2984 6.65772Z" fill="black"/>
<path d="M25.0008 7.01903C24.9857 8.96978 24.2642 11.0613 22.8161 12.9327C22.5345 13.2957 22.1483 13.3945 21.8387 13.1876C21.5292 12.9807 21.5048 12.619 21.7929 12.2473C23.1141 10.5421 23.7777 8.63609 23.7504 6.53585C23.7361 4.58553 23.0652 2.68854 21.8323 1.11206C21.7979 1.06735 21.7606 1.02464 21.7255 0.978588C21.5055 0.671594 21.5535 0.3012 21.8358 0.116336C22.1404 -0.0838776 22.4865 -0.0251492 22.7415 0.288519C23.4833 1.20448 24.056 2.22914 24.4362 3.32042C24.8224 4.40558 24.9994 5.52344 25.0008 7.01903Z" fill="black"/>
<path d="M0.000578722 7.14956C0.0113268 4.32721 0.743628 2.23899 2.18745 0.366989C2.47837 -0.0100803 2.83234 -0.100178 3.16051 0.113384C3.47149 0.313597 3.49442 0.690666 3.21067 1.05439C1.93093 2.69814 1.27028 4.53944 1.24879 6.56493C1.22729 8.55505 1.8342 10.379 3.04013 12.0261C3.10749 12.1175 3.17842 12.207 3.24578 12.2991C3.4937 12.6387 3.46074 12.9878 3.16266 13.186C2.86458 13.3842 2.46762 13.3048 2.22543 12.9918C1.54668 12.1299 1.00892 11.179 0.629699 10.1701C0.206225 9.02556 -0.00945281 7.84697 0.000578722 7.14956Z" fill="black"/>
<path d="M3.20215 6.67524C3.23726 5.09823 3.72594 3.67204 4.71763 2.40402C4.81541 2.2808 4.94373 2.18143 5.09166 2.11438C5.34746 2.00293 5.59324 2.07767 5.76664 2.27522C5.97228 2.50813 5.94075 2.76173 5.78956 3.01867C5.48002 3.5419 5.10456 4.0451 4.89031 4.60103C4.14511 6.53643 4.42026 8.37906 5.64053 10.0962C5.66704 10.1329 5.69713 10.1676 5.72436 10.2043C5.99808 10.5707 5.9644 10.9385 5.63838 11.1387C5.3274 11.3342 4.96841 11.2428 4.69255 10.8824C4.06199 10.0582 3.61272 9.15522 3.40994 8.15882C3.31178 7.66897 3.2738 7.16977 3.20215 6.67524Z" fill="black"/>
<path d="M21.7993 6.65801C21.7598 8.19965 21.2791 9.59447 20.3246 10.8438C20.1978 11.0093 19.9707 11.1862 19.7736 11.2049C19.5766 11.2235 19.3179 11.0861 19.1846 10.9379C18.9911 10.723 19.0728 10.4534 19.2498 10.2311C19.7816 9.57145 20.1552 8.81315 20.3454 8.00744C20.7538 6.26692 20.4194 4.6592 19.3422 3.1843C19.2539 3.07976 19.1802 2.96516 19.123 2.84327C19.0721 2.71097 19.0747 2.56596 19.1302 2.43529C19.1857 2.30462 19.2904 2.19724 19.4247 2.13318C19.7113 1.99369 20.0144 2.05977 20.2408 2.3394C20.9061 3.15649 21.364 4.10342 21.58 5.10902C21.6889 5.6189 21.7283 6.14146 21.7993 6.65801Z" fill="black"/>
<path d="M6.39296 6.62933C6.38891 5.75676 6.67611 4.9046 7.21482 4.19073C7.45916 3.85704 7.82245 3.76894 8.13773 3.95581C8.453 4.14267 8.50459 4.50106 8.27028 4.83341C7.42262 6.03469 7.41044 7.23998 8.25739 8.44793C8.50674 8.80498 8.45443 9.15469 8.12769 9.35156C7.81815 9.53776 7.4692 9.44834 7.21053 9.1013C6.66343 8.37892 6.37711 7.51322 6.39296 6.62933Z" fill="black"/>
<path d="M18.6077 6.58005C18.6332 7.48052 18.3471 8.36475 17.7915 9.10207C17.5429 9.43576 17.1767 9.53721 16.8736 9.35501C16.5483 9.16014 16.4996 8.80376 16.7461 8.45072C17.5883 7.24321 17.5842 6.03814 16.7339 4.83552C16.4996 4.50183 16.5533 4.14879 16.865 3.95725C17.1638 3.77306 17.5285 3.85247 17.7643 4.16481C18.3121 4.86676 18.6074 5.71223 18.6077 6.58005Z" fill="black"/>
<path d="M11.2991 6.65631C11.2991 6.25588 11.2891 5.85546 11.2991 5.45503C11.3113 5.0813 11.5141 4.97919 11.8609 5.16405C12.587 5.54579 13.3095 5.93265 14.0284 6.32462C14.4347 6.54686 14.434 6.76109 14.0356 6.97598C13.3358 7.35372 12.6338 7.72923 11.9297 8.10252C11.4854 8.33877 11.302 8.236 11.2963 7.75348C11.2948 7.38909 11.2991 7.0227 11.2991 6.65631Z" fill="white"/>
</g>
<defs>
<clipPath id="clip0_2339_36049">
<rect width="25" height="15" fill="white"/>
</clipPath>
</defs>
</svg>
