<svg width="18" height="18" viewBox="0 0 18 18" fill="none" xmlns="http://www.w3.org/2000/svg">
<path d="M17.3337 9.5799C17.332 10.8049 17.3228 11.8449 17.2537 12.6991C17.1728 13.6907 17.007 14.5191 16.637 15.2066C16.4755 15.508 16.2705 15.784 16.0287 16.0257C15.3345 16.7199 14.4512 17.0341 13.3312 17.1841C12.237 17.3316 10.8337 17.3316 9.04449 17.3316H8.95616C7.16616 17.3316 5.76449 17.3316 4.66949 17.1841C3.55033 17.0341 2.66616 16.7199 1.97283 16.0257C1.35783 15.4107 1.03949 14.6457 0.871159 13.6966C0.704492 12.7632 0.674492 11.6032 0.668659 10.1624C0.666992 9.79573 0.666992 9.40823 0.666992 8.99823V8.95323C0.666992 7.16323 0.666992 5.76156 0.814492 4.66656C0.964492 3.5474 1.27866 2.66323 1.97283 1.9699C2.66616 1.27573 3.55033 0.961563 4.66949 0.811563C5.64283 0.680729 6.89449 0.665729 8.41866 0.664062C8.57293 0.664063 8.72088 0.725345 8.82996 0.834429C8.93904 0.943512 9.00033 1.09146 9.00033 1.24573C9.00033 1.4 8.93904 1.54795 8.82996 1.65703C8.72088 1.76611 8.57293 1.8274 8.41866 1.8274C6.87283 1.82906 5.72366 1.8424 4.82449 1.96323C3.83366 2.09656 3.23616 2.3499 2.79449 2.79156C2.35283 3.23323 2.10033 3.83156 1.96699 4.82323C1.83116 5.83156 1.82949 7.1549 1.82949 8.99823V9.65156L2.60616 8.97323C2.9466 8.67537 3.38751 8.518 3.83961 8.53301C4.29172 8.54802 4.72122 8.73428 5.04116 9.05406L8.36616 12.3791C8.62413 12.6372 8.9649 12.796 9.32847 12.8276C9.69203 12.8591 10.0551 12.7614 10.3537 12.5516L10.5853 12.3891C11.016 12.0864 11.5366 11.9388 12.062 11.9704C12.5875 12.0021 13.0866 12.2111 13.4778 12.5632L15.672 14.5382C15.8928 14.0741 16.0245 13.4649 16.0945 12.6049C16.1603 11.7949 16.1695 10.8116 16.1703 9.5799C16.1703 9.42563 16.2316 9.27768 16.3407 9.1686C16.4498 9.05951 16.5977 8.99823 16.752 8.99823C16.9063 8.99823 17.0542 9.05951 17.1633 9.1686C17.2724 9.27768 17.3337 9.42563 17.3337 9.5799Z" fill="#637381"/>
<path fill-rule="evenodd" clip-rule="evenodd" d="M13.5837 8.1649C11.8162 8.1649 10.932 8.1649 10.3828 7.61573C9.83366 7.06656 9.83366 6.1824 9.83366 4.4149C9.83366 2.6474 9.83366 1.76323 10.3828 1.21406C10.932 0.664896 11.8162 0.664896 13.5837 0.664896C15.3512 0.664896 16.2353 0.664896 16.7845 1.21406C17.3337 1.76323 17.3337 2.6474 17.3337 4.4149C17.3337 6.1824 17.3337 7.06656 16.7845 7.61573C16.2353 8.1649 15.3512 8.1649 13.5837 8.1649ZM14.2087 2.74823C14.2087 2.58247 14.1428 2.4235 14.0256 2.30629C13.9084 2.18908 13.7494 2.12323 13.5837 2.12323C13.4179 2.12323 13.2589 2.18908 13.1417 2.30629C13.0245 2.4235 12.9587 2.58247 12.9587 2.74823V3.7899H11.917C11.7512 3.7899 11.5923 3.85574 11.4751 3.97295C11.3578 4.09016 11.292 4.24914 11.292 4.4149C11.292 4.58066 11.3578 4.73963 11.4751 4.85684C11.5923 4.97405 11.7512 5.0399 11.917 5.0399H12.9587V6.08156C12.9587 6.24732 13.0245 6.40629 13.1417 6.5235C13.2589 6.64071 13.4179 6.70656 13.5837 6.70656C13.7494 6.70656 13.9084 6.64071 14.0256 6.5235C14.1428 6.40629 14.2087 6.24732 14.2087 6.08156V5.0399H15.2503C15.4161 5.0399 15.5751 4.97405 15.6923 4.85684C15.8095 4.73963 15.8753 4.58066 15.8753 4.4149C15.8753 4.24914 15.8095 4.09016 15.6923 3.97295C15.5751 3.85574 15.4161 3.7899 15.2503 3.7899H14.2087V2.74823Z" fill="#637381"/>
</svg>
