<svg width="40" height="40" viewBox="0 0 40 40" fill="none" xmlns="http://www.w3.org/2000/svg">
<path d="M0 20C0 8.95431 8.95431 0 20 0C31.0457 0 40 8.95431 40 20C40 31.0457 31.0457 40 20 40C8.95431 40 0 31.0457 0 20Z" fill="#DD9642" fill-opacity="0.08"/>
<path fill-rule="evenodd" clip-rule="evenodd" d="M10 20C10 25.5228 14.4772 30 20 30C25.5228 30 30 25.5228 30 20C30 14.4772 25.5228 10 20 10C14.4772 10 10 14.4772 10 20ZM16 20C16 17.7909 17.7909 16 20 16C22.2091 16 24 17.7909 24 20C24 22.2091 22.2091 24 20 24C17.7909 24 16 22.2091 16 20Z" fill="url(#paint0_linear_2262_12189)"/>
<defs>
<linearGradient id="paint0_linear_2262_12189" x1="19.9983" y1="29.9931" x2="19.9983" y2="10.0069" gradientUnits="userSpaceOnUse">
<stop stop-color="#E55471"/>
<stop offset="0.00831226" stop-color="#E55570"/>
<stop offset="0.2669" stop-color="#E1735B"/>
<stop offset="0.5211" stop-color="#DF894B"/>
<stop offset="0.7668" stop-color="#DD9642"/>
<stop offset="0.9944" stop-color="#DD9A3F"/>
</linearGradient>
</defs>
</svg>
