<svg width="25" height="31" viewBox="0 0 25 31" fill="none" xmlns="http://www.w3.org/2000/svg">
<g clip-path="url(#clip0_2339_36166)">
<path d="M0.881592 15.1906C0.881592 10.5109 0.881592 5.83776 0.881592 1.15803C0.881592 0.316727 1.1718 0.0078125 1.96214 0.0078125C8.97024 0.0078125 15.9845 0.0078125 22.9926 0.0078125C23.7645 0.0078125 24.0608 0.3233 24.0608 1.13174C24.0608 9.74191 24.0608 18.3521 24.0608 26.9623C24.0608 27.7707 24.0608 28.5857 24.0608 29.3941C24.0608 30.2617 23.4557 30.6692 22.7271 30.2815C19.4052 28.5134 16.0833 26.7454 12.7676 24.9707C12.5638 24.859 12.4095 24.8524 12.1995 24.9642C8.8838 26.7388 5.55572 28.5068 2.23382 30.2749C1.4867 30.6758 0.881592 30.2749 0.881592 29.3876C0.881592 24.6553 0.881592 19.923 0.881592 15.1906ZM16.6267 17.4779C16.6143 17.4056 16.602 17.2873 16.5835 17.169C16.4229 16.1765 16.2747 15.1841 16.1018 14.1916C16.0648 13.9681 16.1142 13.8235 16.2624 13.6724C16.9478 12.9757 17.627 12.2724 18.2938 11.5625C18.4358 11.4114 18.5778 11.2273 18.6334 11.0302C18.7878 10.5109 18.4914 10.0114 17.9604 9.91937C16.9972 9.74848 16.0277 9.61046 15.0583 9.46586C14.8052 9.42642 14.6447 9.34098 14.5273 9.0715C14.126 8.14476 13.6876 7.2443 13.2677 6.32413C13.1072 5.96264 12.854 5.74574 12.4774 5.73917C12.0884 5.73917 11.8352 5.96264 11.6685 6.33728C11.2548 7.25745 10.8226 8.16447 10.4151 9.08465C10.3101 9.32126 10.1681 9.42642 9.93347 9.45929C9.00729 9.59074 8.08111 9.73534 7.15493 9.87336C6.77828 9.93252 6.45103 10.0837 6.32136 10.4978C6.1917 10.925 6.34606 11.2536 6.64244 11.556C7.33399 12.2592 8.00702 12.9822 8.69856 13.6855C8.84058 13.8301 8.88998 13.9616 8.85293 14.1719C8.68004 15.1643 8.53185 16.1568 8.36514 17.1493C8.29104 17.5765 8.30339 17.9643 8.66769 18.2404C9.01347 18.5098 9.35924 18.431 9.71119 18.2272C10.5633 17.7408 11.4154 17.261 12.2798 16.7944C12.3909 16.7352 12.5762 16.7418 12.6935 16.8009C13.1195 17.0113 13.5332 17.261 13.9531 17.4976C14.4347 17.7671 14.9102 18.0497 15.4041 18.3061C15.9845 18.615 16.6267 18.2009 16.6267 17.4779Z" fill="#BBBBBB"/>
</g>
<defs>
<clipPath id="clip0_2339_36166">
<rect width="23.1792" height="30.4227" fill="white" transform="translate(0.881592 0.0078125)"/>
</clipPath>
</defs>
</svg>
