<svg width="24" height="31" viewBox="0 0 24 31" fill="none" xmlns="http://www.w3.org/2000/svg">
<g clip-path="url(#clip0_2339_17164)">
<path d="M0.46875 15.4431C0.46875 10.7634 0.46875 6.0902 0.46875 1.41047C0.46875 0.569169 0.758954 0.260254 1.5493 0.260254C8.5574 0.260254 15.5717 0.260254 22.5798 0.260254C23.3516 0.260254 23.648 0.575741 23.648 1.38418C23.648 9.99435 23.648 18.6045 23.648 27.2147C23.648 28.0231 23.648 28.8381 23.648 29.6466C23.648 30.5142 23.0429 30.9217 22.3143 30.5339C18.9924 28.7658 15.6705 26.9978 12.3547 25.2232C12.151 25.1115 11.9966 25.1049 11.7867 25.2166C8.47096 26.9912 5.14288 28.7593 1.82098 30.5273C1.07386 30.9283 0.46875 30.5273 0.46875 29.64C0.46875 24.9077 0.46875 20.1754 0.46875 15.4431ZM16.2138 17.7304C16.2015 17.6581 16.1891 17.5398 16.1706 17.4214C16.0101 16.429 15.8619 15.4365 15.689 14.444C15.652 14.2206 15.7014 14.076 15.8495 13.9248C16.5349 13.2281 17.2141 12.5248 17.881 11.815C18.023 11.6638 18.165 11.4798 18.2206 11.2826C18.3749 10.7634 18.0786 10.2638 17.5475 10.1718C16.5843 10.0009 15.6149 9.8629 14.6455 9.7183C14.3923 9.67886 14.2318 9.59342 14.1145 9.32394C13.7131 8.3972 13.2748 7.49674 12.8549 6.57657C12.6943 6.21508 12.4412 5.99818 12.0645 5.99161C11.6755 5.99161 11.4224 6.21508 11.2557 6.58972C10.842 7.50989 10.4098 8.41692 10.0022 9.33709C9.89728 9.5737 9.75526 9.67887 9.52063 9.71173C8.59445 9.84318 7.66827 9.98778 6.74209 10.1258C6.36544 10.185 6.03819 10.3361 5.90852 10.7502C5.77886 11.1774 5.93322 11.5061 6.2296 11.8084C6.92115 12.5117 7.59417 13.2347 8.28572 13.9379C8.42774 14.0825 8.47713 14.214 8.44009 14.4243C8.2672 15.4168 8.11901 16.4093 7.9523 17.4017C7.8782 17.829 7.89055 18.2167 8.25485 18.4928C8.60062 18.7623 8.9464 18.6834 9.29835 18.4796C10.1504 17.9933 11.0025 17.5135 11.867 17.0468C11.9781 16.9877 12.1633 16.9942 12.2807 17.0534C12.7067 17.2637 13.1204 17.5135 13.5403 17.7501C14.0219 18.0196 14.4973 18.3022 14.9913 18.5585C15.5717 18.8674 16.2138 18.4534 16.2138 17.7304Z" fill="#E1735B"/>
</g>
<defs>
<clipPath id="clip0_2339_17164">
<rect width="23.1792" height="30.4227" fill="white" transform="translate(0.46875 0.260254)"/>
</clipPath>
</defs>
</svg>
