<svg width="49" height="49" viewBox="0 0 49 49" fill="none" xmlns="http://www.w3.org/2000/svg">
<path d="M0 8C0 3.58172 3.58172 0 8 0H41C45.4183 0 49 3.58172 49 8V41C49 45.4183 45.4183 49 41 49H8C3.58172 49 0 45.4183 0 41V8Z" fill="url(#paint0_linear_2339_18441)"/>
<g clip-path="url(#clip0_2339_18441)">
<path d="M27.1889 35.5C27.0227 35.5 26.8662 35.5 26.7 35.5C26.5436 35.2849 26.348 35.0796 26.2307 34.8449C25.2724 32.8796 24.324 30.8947 23.3658 28.9293C23.2289 28.6556 23.2484 28.4796 23.4244 28.2351C24.852 26.2209 26.26 24.1871 27.6778 22.1631C28.2351 21.3613 28.8022 20.5498 29.3596 19.748C29.2031 19.748 29.1151 19.8067 29.0271 19.8653C26.3187 21.7524 23.6102 23.6396 20.9116 25.5462C20.5889 25.7809 20.3444 25.7809 20.0022 25.6147C18.0662 24.6564 16.1107 23.7373 14.1747 22.7889C13.9107 22.6618 13.7249 22.3978 13.5 22.2022C13.5 22.1338 13.5 22.0751 13.5 22.0067C13.7444 21.8013 13.9596 21.4982 14.2431 21.3907C19.5427 19.3373 24.8422 17.3036 30.1418 15.26C31.6378 14.6831 33.124 14.0867 34.62 13.5C34.9133 13.5 35.2067 13.5 35.5 13.5C35.5 13.764 35.5 14.0182 35.5 14.2822C35.4511 14.3604 35.4022 14.4484 35.3729 14.5267C32.8111 21.2538 30.2493 27.9711 27.6778 34.6884C27.5702 34.9818 27.3551 35.236 27.1889 35.5Z" fill="white"/>
</g>
<defs>
<linearGradient id="paint0_linear_2339_18441" x1="24.4958" y1="48.983" x2="24.4958" y2="0.0168404" gradientUnits="userSpaceOnUse">
<stop stop-color="#E55471"/>
<stop offset="0.00831226" stop-color="#E55570"/>
<stop offset="0.2669" stop-color="#E1735B"/>
<stop offset="0.5211" stop-color="#DF894B"/>
<stop offset="0.7668" stop-color="#DD9642"/>
<stop offset="0.9944" stop-color="#DD9A3F"/>
</linearGradient>
<clipPath id="clip0_2339_18441">
<rect width="22" height="22" fill="white" transform="translate(13.5 13.5)"/>
</clipPath>
</defs>
</svg>
