<svg width="23" height="22" viewBox="0 0 23 22" fill="none" xmlns="http://www.w3.org/2000/svg">
<path d="M6.97975 8.626C9.6459 7.2977 12.2834 5.97896 14.9017 4.65067C15.0164 4.59333 15.1024 4.35443 15.0929 4.21109C14.9686 2.30943 16.0007 0.761343 17.7399 0.283538C19.4027 -0.175154 21.1419 0.598889 21.9255 2.13742C22.6995 3.66639 22.2886 5.54894 20.9412 6.60967C19.5938 7.67039 17.6539 7.65128 16.3734 6.51411C16.0294 6.20831 15.8096 6.21787 15.4369 6.40899C13.0096 7.64172 10.5728 8.84579 8.13604 10.0594C7.90669 10.1741 7.71557 10.2792 7.82069 10.5946C7.84936 10.6614 7.84936 10.757 7.83025 10.8335C7.62001 11.6457 8.0787 11.9611 8.74763 12.2764C11.0411 13.3754 13.3059 14.5317 15.5802 15.6879C15.8765 15.8408 16.0389 15.7931 16.2778 15.5828C17.4437 14.5603 18.772 14.331 20.1767 14.9617C21.5528 15.5733 22.2504 16.7104 22.3173 18.2012C22.3937 20.0551 20.9699 21.5936 18.9822 21.8516C17.3481 22.0714 15.5898 20.8291 15.198 19.1472C15.0929 18.7077 15.1406 18.2299 15.0833 17.7807C15.0642 17.6278 14.9782 17.408 14.854 17.3507C12.312 16.0606 9.76057 14.8088 7.22821 13.5187C6.91286 13.3563 6.79819 13.5474 6.62618 13.7003C5.59412 14.5794 4.40917 14.8757 3.10954 14.4457C1.82902 14.0347 1.0072 13.1269 0.701406 11.7986C0.338275 10.241 1.05498 8.67378 2.4215 7.88063C3.78802 7.08747 5.46989 7.26904 6.67396 8.34887C6.76952 8.43488 6.85552 8.52088 6.97975 8.626Z" fill="#BBBBBB"/>
</svg>
