<svg width="25" height="20" viewBox="0 0 25 20" fill="none" xmlns="http://www.w3.org/2000/svg">
<path d="M20.1597 0.849609C20.4673 0.84961 20.7367 0.90509 20.9702 1.0332C21.2044 1.16169 21.3912 1.35747 21.5435 1.62012C22.3075 2.93815 23.0718 4.25488 23.8823 5.54297C24.1638 5.99081 24.1957 6.41407 24.0972 6.85645L24.0474 7.04785C23.8449 7.72425 23.4407 8.26111 22.8892 8.70117V8.70215C22.8526 8.73108 22.8125 8.77517 22.7827 8.82422C22.7517 8.87533 22.7409 8.91623 22.7407 8.93848C22.7297 12.0042 22.7262 15.07 22.7319 18.1357V18.1367C22.7319 18.149 22.7333 18.1623 22.7349 18.1787C22.7514 18.1783 22.7698 18.1786 22.7905 18.1787C22.839 18.179 22.9001 18.1817 22.9614 18.2002L23.022 18.2246L23.0249 18.2256V18.2266C23.1062 18.27 23.1747 18.3264 23.2329 18.3799C23.2982 18.4398 23.3384 18.482 23.395 18.5312L23.5063 18.6289L23.4116 18.7412C23.3043 18.868 23.1859 18.9871 23.0591 19.0957L23.0532 19.1006C23.0133 19.1311 22.9694 19.1433 22.936 19.1484C22.9026 19.1536 22.8696 19.1527 22.8433 19.1514C22.817 19.15 22.7886 19.1474 22.7681 19.1455C22.7453 19.1434 22.7286 19.1426 22.7153 19.1426H2.08252C1.95496 19.1378 1.82384 19.1068 1.72217 19.0264C1.61403 18.9407 1.55865 18.8141 1.56006 18.6621C1.56153 18.5093 1.62058 18.3828 1.73291 18.3008C1.83575 18.2258 1.96559 18.2007 2.09131 18.2002C2.15104 18.1975 2.20303 18.1928 2.27002 18.1875V17.1123C2.27002 14.4267 2.27105 11.7408 2.27393 9.05469C2.27391 8.95406 2.26228 8.88502 2.23682 8.8291C2.2122 8.77513 2.16912 8.72076 2.08643 8.65918L1.95752 8.56152C1.66516 8.32659 1.4201 8.04065 1.23486 7.71875C1.0496 7.39675 0.928164 7.04476 0.876465 6.68066L0.858887 6.52441C0.835587 6.25865 0.891377 5.99229 1.02002 5.75684L1.02197 5.75293C1.82252 4.37037 2.66823 2.982 3.47021 1.60449C3.61962 1.34852 3.80349 1.15667 4.03271 1.03027C4.26134 0.904249 4.52461 0.84992 4.82373 0.850586C9.93597 0.858421 15.0484 0.857444 20.1597 0.849609ZM18.0864 7.85059C17.4265 8.79898 16.5139 9.33349 15.2974 9.33691C14.0817 9.34031 13.1637 8.7891 12.4995 7.86133C11.1356 9.81657 8.25623 9.83865 6.89307 7.86914C6.45921 8.4688 5.94226 8.88865 5.33643 9.12012C4.71641 9.35699 4.01769 9.39123 3.24463 9.24023C3.24119 9.29989 3.23779 9.3551 3.23779 9.41211C3.23779 12.2592 3.24268 15.1072 3.229 17.9551L3.23291 18.0527C3.24131 18.1299 3.25955 18.1545 3.27002 18.1641C3.28932 18.1812 3.34117 18.2034 3.50342 18.2031C7.45298 18.1934 11.4025 18.1908 15.3511 18.1963H15.6177V10.5859C15.6177 10.4613 15.6221 10.3513 15.6401 10.2598C15.6585 10.1667 15.6934 10.0787 15.7632 10.0098C15.8329 9.94102 15.9217 9.90768 16.0151 9.88965C16.1072 9.8719 16.2173 9.86639 16.3433 9.86621H20.1968C20.3241 9.86622 20.4352 9.87098 20.5278 9.88867C20.6218 9.90664 20.7108 9.94053 20.7808 10.0088C20.8511 10.0776 20.8863 10.1659 20.9048 10.2588C20.9229 10.3497 20.9272 10.4581 20.9272 10.5811V18.1934C21.1317 18.1887 21.3337 18.18 21.521 18.2021H21.52C21.6803 18.2208 21.7177 18.1893 21.7271 18.1787C21.7461 18.157 21.7668 18.0997 21.7661 17.9443C21.7553 15.1095 21.7603 12.2745 21.7603 9.43555V9.2373C20.9776 9.38961 20.2755 9.35388 19.6538 9.11426C19.0439 8.87909 18.5247 8.45375 18.0864 7.85059ZM16.6274 18.1709H19.938V17.4268H16.6274V18.1709ZM16.6187 16.4375H19.9331V10.8438H16.6187V16.4375ZM7.48486 6.6875C7.55159 7.09846 7.79453 7.49456 8.14697 7.80469C8.54382 8.15384 9.06568 8.38201 9.59229 8.39648C10.7496 8.42753 11.7348 7.68056 11.9272 6.6875H7.48486ZM4.80322 1.79883C4.67727 1.79883 4.58922 1.82123 4.521 1.86035C4.46989 1.88974 4.4221 1.93355 4.37549 1.99805L4.32861 2.07031C3.62932 3.26528 2.91505 4.45331 2.20947 5.64258C2.19628 5.66494 2.18752 5.68812 2.17627 5.71094H2.66943C2.79472 5.71094 2.93429 5.72975 3.04541 5.80566C3.16773 5.88932 3.22945 6.02336 3.229 6.19238C3.22852 6.36683 3.1579 6.49806 3.03174 6.57617C2.91926 6.64565 2.78049 6.66162 2.6626 6.66309H2.66162C2.40963 6.66422 2.15363 6.66193 1.88623 6.66113C2.11413 7.72858 3.15874 8.47628 4.32178 8.39062C4.83817 8.35273 5.35754 8.09648 5.7417 7.73633C6.08371 7.41565 6.30122 7.02918 6.33057 6.66211H6.09521C5.48342 6.66211 4.87103 6.66235 4.25928 6.6582V6.65723C4.13294 6.6571 4.00052 6.6308 3.896 6.55273C3.78454 6.46948 3.72314 6.34183 3.72314 6.18555C3.72321 6.03185 3.78064 5.90585 3.89014 5.82129C3.99245 5.74233 4.12312 5.71352 4.24854 5.70801L4.25537 5.70703H20.5269C20.544 5.70703 20.5638 5.70624 20.5894 5.7041C20.613 5.70211 20.6442 5.69949 20.6733 5.69824C20.7248 5.69605 20.8138 5.69519 20.8901 5.74414C20.9537 5.78482 21.0383 5.84117 21.1079 5.9043C21.1427 5.93588 21.1785 5.97295 21.2065 6.01465C21.2271 6.04528 21.2476 6.08453 21.2573 6.12988L21.2632 6.17773L21.2603 6.22461C21.2533 6.27053 21.2347 6.31119 21.2163 6.34375C21.1907 6.38905 21.1566 6.43129 21.1206 6.46777C21.0513 6.53801 20.9558 6.60505 20.8599 6.63281L20.8608 6.63379C20.7457 6.66778 20.6271 6.67314 20.519 6.67188C20.4647 6.67124 20.4099 6.66914 20.3589 6.66699C20.3069 6.66481 20.2578 6.66309 20.2104 6.66309H18.6655C18.8438 7.65395 19.8454 8.42005 20.9868 8.39453C21.5232 8.38253 22.0547 8.15084 22.4556 7.79688C22.8131 7.48114 23.0551 7.07758 23.1128 6.66113H22.3091C22.1949 6.6585 22.063 6.63968 21.9565 6.56836C21.8388 6.48939 21.7759 6.36188 21.7739 6.19824V6.19727C21.772 6.03005 21.8309 5.89586 21.9507 5.81055C22.06 5.73275 22.1988 5.71222 22.3237 5.70996C22.4873 5.707 22.6589 5.709 22.8374 5.70996C22.1004 4.46781 21.3712 3.22475 20.6128 1.99805V1.99707C20.5905 1.963 20.5331 1.9157 20.4468 1.875C20.4041 1.85487 20.3605 1.83952 20.3198 1.8291L20.2104 1.81348C15.0747 1.79965 9.93894 1.79422 4.80322 1.79883ZM13.0737 6.68066C13.3082 7.7618 14.4311 8.54011 15.5835 8.38672C16.1028 8.31817 16.6158 8.04284 16.9839 7.68359C17.3114 7.3639 17.5024 7.00054 17.5103 6.68066H13.0737Z" fill="white" stroke="white" stroke-width="0.3"/>
</svg>
