<svg width="31" height="33" viewBox="0 0 31 33" fill="none" xmlns="http://www.w3.org/2000/svg">
<rect y="0.5" width="31" height="32" rx="8" fill="url(#paint0_linear_2339_36489)"/>
<path d="M11.656 9.15936C14.3062 8.75421 16.7187 8.39116 19.1311 8.01758C20.1708 7.85623 21.2037 7.62647 22.2484 7.51773C23.2144 7.41776 23.494 7.72995 23.4957 8.72264C23.4957 12.9588 23.4957 17.1939 23.4957 21.4277C23.4957 22.943 22.2618 24.3198 20.8304 24.4093C20.3845 24.4383 19.9375 24.4436 19.4911 24.4251C17.7332 24.3514 16.6048 22.2538 17.544 20.6507C18.2991 19.3634 19.1914 18.1269 20.9493 18.3988C21.3929 18.4689 21.6005 18.2234 21.5988 17.7323C21.5871 15.5733 21.5988 13.4125 21.5988 11.0465C20.8706 11.1167 20.1959 11.1588 19.5279 11.2517C19.0407 11.3201 18.5653 11.4727 18.0798 11.5534C16.6483 11.7867 15.2119 12.0024 13.6918 12.2392C13.67 12.5619 13.6265 12.9319 13.6231 13.2915C13.6086 16.4485 13.5969 19.6054 13.588 22.7624C13.5686 23.4293 13.323 24.0671 12.8953 24.5614C12.4676 25.0557 11.8858 25.3743 11.2542 25.4599C9.49631 25.6493 8.65922 25.1494 7.90585 23.9568C6.93818 22.4362 7.88576 20.7998 8.99406 20.0246C9.41595 19.7282 9.98517 19.4844 10.474 19.5107C11.3345 19.5563 11.5589 19.1389 11.5606 18.3865C11.5606 16.808 11.5505 15.2295 11.5606 13.651C11.5756 12.1778 11.6225 10.701 11.656 9.15936Z" fill="white"/>
<defs>
<linearGradient id="paint0_linear_2339_36489" x1="15.4973" y1="32.4889" x2="15.4973" y2="0.510998" gradientUnits="userSpaceOnUse">
<stop stop-color="#E55471"/>
<stop offset="0.00831226" stop-color="#E55570"/>
<stop offset="0.2669" stop-color="#E1735B"/>
<stop offset="0.5211" stop-color="#DF894B"/>
<stop offset="0.7668" stop-color="#DD9642"/>
<stop offset="0.9944" stop-color="#DD9A3F"/>
</linearGradient>
</defs>
</svg>
