<svg width="16" height="18" viewBox="0 0 16 18" fill="none" xmlns="http://www.w3.org/2000/svg">
<g clip-path="url(#clip0_2339_36315)">
<path d="M4.15867 1.65936C6.80887 1.25421 9.22134 0.891158 11.6338 0.517583C12.6735 0.356227 13.7064 0.126474 14.7511 0.0177338C15.7171 -0.0822369 15.9967 0.229952 15.9984 1.22264C15.9984 5.45883 15.9984 9.69385 15.9984 13.9277C15.9984 15.443 14.7645 16.8198 13.3331 16.9093C12.8872 16.9383 12.4402 16.9436 11.9938 16.9251C10.2359 16.8514 9.1075 14.7538 10.0467 13.1507C10.8018 11.8634 11.6941 10.6269 13.452 10.8988C13.8956 10.9689 14.1032 10.7234 14.1015 10.2323C14.0898 8.07327 14.1015 5.9125 14.1015 3.54653C13.3733 3.61668 12.6986 3.65877 12.0306 3.75173C11.5434 3.82013 11.068 3.97272 10.5824 4.0534C9.15103 4.28666 7.71459 4.50238 6.19445 4.73916C6.17269 5.06187 6.12916 5.43194 6.12581 5.79148C6.11131 8.94845 6.09958 12.1054 6.09065 15.2624C6.07124 15.9293 5.82566 16.5671 5.39797 17.0614C4.97027 17.5557 4.38846 17.8743 3.75687 17.9599C1.99899 18.1493 1.16191 17.6494 0.408536 16.4568C-0.559132 14.9362 0.388446 13.2998 1.49674 12.5246C1.91863 12.2282 2.48785 11.9844 2.97671 12.0107C3.83723 12.0563 4.06157 11.6389 4.06324 10.8865C4.06324 9.30799 4.0532 7.72951 4.06324 6.15102C4.07831 4.67777 4.12519 3.20101 4.15867 1.65936Z" fill="white"/>
</g>
<defs>
<clipPath id="clip0_2339_36315">
<rect width="16" height="18" fill="white"/>
</clipPath>
</defs>
</svg>
