<svg width="207" height="207" viewBox="0 0 207 207" fill="none" xmlns="http://www.w3.org/2000/svg">
<path d="M1 103.5C1 46.8908 46.8908 1 103.5 1V1C160.109 1 206 46.8908 206 103.5V103.5C206 160.109 160.109 206 103.5 206V206C46.8908 206 1 160.109 1 103.5V103.5Z" stroke="#919EAB" stroke-opacity="0.2" stroke-width="1.42361" stroke-dasharray="4.27 2.85"/>
<circle cx="103.5" cy="103.502" r="91.1111" fill="#919EAB" fill-opacity="0.08"/>
<path fill-rule="evenodd" clip-rule="evenodd" d="M104.212 84.332C104.589 84.332 104.951 84.482 105.218 84.7489C105.485 85.0159 105.635 85.378 105.635 85.7556V88.1283H108.008C108.385 88.1283 108.748 88.2783 109.015 88.5452C109.282 88.8122 109.431 89.1743 109.431 89.5519C109.431 89.9294 109.282 90.2915 109.015 90.5585C108.748 90.8255 108.385 90.9755 108.008 90.9755H105.635V93.3482C105.635 93.7257 105.485 94.0878 105.218 94.3548C104.951 94.6218 104.589 94.7718 104.212 94.7718C103.834 94.7718 103.472 94.6218 103.205 94.3548C102.938 94.0878 102.788 93.7257 102.788 93.3482V90.9755H100.415C100.038 90.9755 99.6756 90.8255 99.4086 90.5585C99.1417 90.2915 98.9917 89.9294 98.9917 89.5519C98.9917 89.1743 99.1417 88.8122 99.4086 88.5452C99.6756 88.2783 100.038 88.1283 100.415 88.1283H102.788V85.7556C102.788 85.378 102.938 85.0159 103.205 84.7489C103.472 84.482 103.834 84.332 104.212 84.332Z" fill="#919EAB"/>
<path fill-rule="evenodd" clip-rule="evenodd" d="M99.9939 104.737H108.429C114.353 104.737 117.316 104.737 119.444 103.342C120.362 102.74 121.153 101.964 121.771 101.057C123.193 98.9686 123.193 96.0587 123.193 90.2428C123.193 84.425 123.193 81.517 121.771 79.4291C121.153 78.522 120.362 77.7454 119.444 77.1437C118.078 76.2459 116.365 75.9251 113.744 75.8112C112.493 75.8112 111.417 74.8811 111.172 73.6758C110.985 72.7929 110.499 72.0017 109.796 71.4359C109.093 70.8701 108.216 70.5643 107.313 70.5704H101.11C99.2346 70.5704 97.6193 71.8706 97.2511 73.6758C97.0062 74.8811 95.93 75.8112 94.6791 75.8112C92.0596 75.9251 90.3475 76.2478 88.9789 77.1437C88.0614 77.7455 87.2713 78.5221 86.6537 79.4291C85.2301 81.517 85.2301 84.425 85.2301 90.2428C85.2301 96.0587 85.2301 98.9667 86.6518 101.057C87.2668 101.96 88.0564 102.736 88.9789 103.342C91.1068 104.737 94.0698 104.737 99.9939 104.737ZM111.804 89.5519C111.804 91.5656 111.004 93.4968 109.58 94.9207C108.156 96.3445 106.225 97.1445 104.212 97.1445C102.198 97.1445 100.267 96.3445 98.8428 94.9207C97.4189 93.4968 96.619 91.5656 96.619 89.5519C96.619 87.5382 97.4189 85.607 98.8428 84.1831C100.267 82.7592 102.198 81.9593 104.212 81.9593C106.225 81.9593 108.156 82.7592 109.58 84.1831C111.004 85.607 111.804 87.5382 111.804 89.5519ZM115.6 82.4338C115.223 82.4338 114.861 82.5838 114.594 82.8508C114.327 83.1178 114.177 83.4799 114.177 83.8574C114.177 84.235 114.327 84.5971 114.594 84.8641C114.861 85.1311 115.223 85.281 115.6 85.281H117.499C117.876 85.281 118.238 85.1311 118.505 84.8641C118.772 84.5971 118.922 84.235 118.922 83.8574C118.922 83.4799 118.772 83.1178 118.505 82.8508C118.238 82.5838 117.876 82.4338 117.499 82.4338H115.6Z" fill="#919EAB"/>
<path d="M57.5601 135.296C56.4895 135.296 55.6211 135.119 54.9549 134.766C54.2943 134.413 53.8103 133.895 53.5028 133.212C53.201 132.528 53.0501 131.688 53.0501 130.692V122.774H54.6901V130.931C54.6901 131.928 54.9378 132.674 55.4332 133.169C55.9286 133.664 56.6376 133.912 57.5601 133.912C58.1808 133.912 58.7075 133.804 59.1403 133.588C59.5788 133.371 59.9119 133.044 60.1397 132.605C60.3731 132.161 60.4899 131.603 60.4899 130.931V122.774H62.0786V130.854C62.0786 131.805 61.922 132.611 61.6088 133.271C61.2956 133.932 60.8059 134.436 60.1397 134.783C59.4791 135.125 58.6192 135.296 57.5601 135.296ZM64.6872 137.875V126.293H66.2588L66.2759 127.83C66.3784 127.648 66.5094 127.457 66.6688 127.258C66.834 127.059 67.0333 126.874 67.2668 126.703C67.5059 126.532 67.7821 126.393 68.0953 126.284C68.4142 126.176 68.7758 126.122 69.1801 126.122C69.8862 126.122 70.5069 126.284 71.0422 126.609C71.5831 126.928 72.0045 127.418 72.3063 128.078C72.6081 128.739 72.759 129.576 72.759 130.589C72.759 131.603 72.611 132.46 72.3149 133.16C72.0245 133.855 71.6031 134.385 71.0507 134.749C70.4983 135.114 69.8321 135.296 69.052 135.296C68.659 135.296 68.3088 135.239 68.0013 135.125C67.6995 135.017 67.4347 134.874 67.207 134.698C66.9849 134.516 66.797 134.322 66.6432 134.117C66.4952 133.912 66.3727 133.716 66.2759 133.528V137.875H64.6872ZM68.753 134.066C69.4819 134.066 70.077 133.79 70.5382 133.237C70.9995 132.679 71.2301 131.814 71.2301 130.641C71.2301 129.633 71.0194 128.833 70.598 128.24C70.1766 127.648 69.5616 127.352 68.753 127.352C67.933 127.352 67.3123 127.657 66.8909 128.266C66.4695 128.87 66.2588 129.661 66.2588 130.641C66.2588 131.273 66.3528 131.848 66.5407 132.366C66.7286 132.884 67.0077 133.297 67.3778 133.605C67.7479 133.912 68.2063 134.066 68.753 134.066ZM77.0931 135.236C76.6148 135.236 76.2276 135.171 75.9315 135.04C75.6411 134.909 75.4161 134.732 75.2567 134.51C75.1029 134.288 74.9976 134.035 74.9406 133.75C74.8894 133.459 74.8638 133.16 74.8638 132.853V122.432H76.4183V132.699C76.4183 133.143 76.5038 133.476 76.6746 133.699C76.8511 133.921 77.096 134.043 77.4092 134.066L77.8875 134.074V135.099C77.7565 135.139 77.6199 135.171 77.4775 135.193C77.3352 135.222 77.207 135.236 77.0931 135.236ZM83.1547 135.296C82.3403 135.296 81.6285 135.122 81.0192 134.775C80.4156 134.422 79.9458 133.906 79.6099 133.229C79.2739 132.551 79.1059 131.723 79.1059 130.743C79.1059 129.821 79.2625 129.012 79.5757 128.317C79.8889 127.623 80.3473 127.084 80.9509 126.703C81.5545 126.316 82.2919 126.122 83.1632 126.122C83.9775 126.122 84.6836 126.301 85.2815 126.66C85.8794 127.013 86.3435 127.534 86.6738 128.223C87.0098 128.912 87.1778 129.752 87.1778 130.743C87.1778 131.643 87.024 132.434 86.7165 133.118C86.409 133.801 85.9563 134.336 85.3584 134.724C84.7662 135.105 84.0316 135.296 83.1547 135.296ZM83.1632 134.049C83.6871 134.049 84.1312 133.915 84.4957 133.647C84.8601 133.38 85.1363 132.995 85.3242 132.494C85.5178 131.993 85.6147 131.398 85.6147 130.709C85.6147 130.077 85.5292 129.51 85.3584 129.009C85.1933 128.502 84.9313 128.101 84.5726 127.805C84.2138 127.509 83.744 127.361 83.1632 127.361C82.6279 127.361 82.1752 127.494 81.8051 127.762C81.4349 128.024 81.1531 128.406 80.9594 128.907C80.7715 129.408 80.6776 130.009 80.6776 130.709C80.6776 131.33 80.7601 131.893 80.9253 132.4C81.0961 132.907 81.3637 133.308 81.7282 133.605C82.0983 133.901 82.5767 134.049 83.1632 134.049ZM91.6548 135.296C91.0797 135.296 90.5729 135.196 90.1344 134.997C89.7016 134.792 89.36 134.499 89.1094 134.117C88.8645 133.736 88.7421 133.274 88.7421 132.733C88.7421 131.754 89.0838 131.025 89.7671 130.547C90.4504 130.068 91.5466 129.812 93.0556 129.778L94.6273 129.735V129.043C94.6273 128.502 94.465 128.075 94.1404 127.762C93.8159 127.443 93.3147 127.284 92.6371 127.284C92.1303 127.289 91.6833 127.409 91.2961 127.643C90.9088 127.876 90.6611 128.258 90.5529 128.787H89.1606C89.1948 128.212 89.3543 127.728 89.639 127.335C89.9294 126.936 90.3365 126.635 90.8604 126.43C91.3843 126.225 92.0022 126.122 92.714 126.122C93.4827 126.122 94.1205 126.23 94.6273 126.447C95.1398 126.663 95.5213 126.982 95.7719 127.403C96.0281 127.825 96.1563 128.343 96.1563 128.958V135.125H94.8067L94.6871 133.468C94.3511 134.157 93.9184 134.635 93.3888 134.903C92.8649 135.165 92.2869 135.296 91.6548 135.296ZM92.1246 134.16C92.4264 134.16 92.7225 134.106 93.0129 133.998C93.309 133.889 93.5767 133.744 93.8159 133.562C94.0607 133.374 94.2572 133.166 94.4052 132.938C94.5533 132.705 94.6273 132.466 94.6273 132.221V130.709L93.3204 130.735C92.6428 130.746 92.079 130.814 91.6292 130.94C91.1793 131.065 90.8405 131.261 90.6127 131.529C90.385 131.797 90.2711 132.147 90.2711 132.58C90.2711 133.075 90.4447 133.462 90.7921 133.741C91.1395 134.02 91.5836 134.16 92.1246 134.16ZM101.84 135.296C100.69 135.296 99.7791 134.903 99.1071 134.117C98.4409 133.331 98.1078 132.184 98.1078 130.675C98.1078 129.758 98.2416 128.958 98.5092 128.275C98.7769 127.591 99.1783 127.062 99.7136 126.686C100.249 126.31 100.915 126.122 101.712 126.122C102.139 126.122 102.515 126.176 102.84 126.284C103.164 126.393 103.446 126.529 103.685 126.694C103.925 126.86 104.118 127.03 104.266 127.207C104.42 127.383 104.534 127.546 104.608 127.694V122.432H106.205V135.125H104.992L104.822 133.314C104.765 133.485 104.673 133.684 104.548 133.912C104.423 134.134 104.246 134.353 104.019 134.57C103.797 134.78 103.506 134.954 103.147 135.091C102.789 135.227 102.353 135.296 101.84 135.296ZM102.122 134.083C103.011 134.083 103.646 133.812 104.027 133.271C104.414 132.725 104.608 131.834 104.608 130.598C104.602 129.909 104.517 129.322 104.352 128.838C104.187 128.354 103.925 127.987 103.566 127.736C103.213 127.48 102.74 127.352 102.148 127.352C101.425 127.352 100.835 127.611 100.38 128.129C99.9243 128.648 99.6965 129.47 99.6965 130.598C99.6965 131.703 99.9015 132.56 100.312 133.169C100.722 133.778 101.325 134.083 102.122 134.083ZM112.968 137.875V126.293H114.539L114.556 127.83C114.659 127.648 114.79 127.457 114.949 127.258C115.114 127.059 115.314 126.874 115.547 126.703C115.786 126.532 116.063 126.393 116.376 126.284C116.695 126.176 117.056 126.122 117.461 126.122C118.167 126.122 118.787 126.284 119.323 126.609C119.864 126.928 120.285 127.418 120.587 128.078C120.889 128.739 121.039 129.576 121.039 130.589C121.039 131.603 120.891 132.46 120.595 133.16C120.305 133.855 119.884 134.385 119.331 134.749C118.779 135.114 118.113 135.296 117.332 135.296C116.939 135.296 116.589 135.239 116.282 135.125C115.98 135.017 115.715 134.874 115.487 134.698C115.265 134.516 115.077 134.322 114.924 134.117C114.776 133.912 114.653 133.716 114.556 133.528V137.875H112.968ZM117.033 134.066C117.762 134.066 118.357 133.79 118.819 133.237C119.28 132.679 119.511 131.814 119.511 130.641C119.511 129.633 119.3 128.833 118.878 128.24C118.457 127.648 117.842 127.352 117.033 127.352C116.213 127.352 115.593 127.657 115.171 128.266C114.75 128.87 114.539 129.661 114.539 130.641C114.539 131.273 114.633 131.848 114.821 132.366C115.009 132.884 115.288 133.297 115.658 133.605C116.028 133.912 116.487 134.066 117.033 134.066ZM123.144 135.125V122.432H124.682V127.591C124.83 127.346 125.029 127.119 125.28 126.908C125.53 126.692 125.835 126.518 126.194 126.387C126.552 126.25 126.968 126.182 127.441 126.182C128.016 126.182 128.537 126.29 129.004 126.506C129.471 126.717 129.841 127.019 130.114 127.412C130.388 127.805 130.524 128.272 130.524 128.813V135.125H128.944V129.129C128.944 128.599 128.762 128.192 128.397 127.907C128.039 127.617 127.569 127.472 126.988 127.472C126.595 127.472 126.225 127.537 125.878 127.668C125.53 127.793 125.248 127.987 125.032 128.249C124.821 128.505 124.716 128.833 124.716 129.231V135.125H123.144ZM136.523 135.296C135.709 135.296 134.997 135.122 134.388 134.775C133.784 134.422 133.315 133.906 132.979 133.229C132.643 132.551 132.475 131.723 132.475 130.743C132.475 129.821 132.631 129.012 132.944 128.317C133.258 127.623 133.716 127.084 134.32 126.703C134.923 126.316 135.661 126.122 136.532 126.122C137.346 126.122 138.052 126.301 138.65 126.66C139.248 127.013 139.712 127.534 140.043 128.223C140.379 128.912 140.547 129.752 140.547 130.743C140.547 131.643 140.393 132.434 140.085 133.118C139.778 133.801 139.325 134.336 138.727 134.724C138.135 135.105 137.4 135.296 136.523 135.296ZM136.532 134.049C137.056 134.049 137.5 133.915 137.864 133.647C138.229 133.38 138.505 132.995 138.693 132.494C138.887 131.993 138.983 131.398 138.983 130.709C138.983 130.077 138.898 129.51 138.727 129.009C138.562 128.502 138.3 128.101 137.941 127.805C137.583 127.509 137.113 127.361 136.532 127.361C135.997 127.361 135.544 127.494 135.174 127.762C134.804 128.024 134.522 128.406 134.328 128.907C134.14 129.408 134.046 130.009 134.046 130.709C134.046 131.33 134.129 131.893 134.294 132.4C134.465 132.907 134.732 133.308 135.097 133.605C135.467 133.901 135.945 134.049 136.532 134.049ZM145.483 135.168C144.874 135.168 144.402 135.085 144.066 134.92C143.73 134.755 143.493 134.51 143.357 134.185C143.226 133.861 143.16 133.462 143.16 132.99V127.446H141.725V126.293H143.203L143.587 123.722H144.749V126.284H146.739V127.446H144.749V132.938C144.749 133.252 144.78 133.482 144.843 133.63C144.911 133.773 145.022 133.864 145.176 133.904C145.33 133.943 145.546 133.963 145.825 133.963H146.79V135.023C146.682 135.062 146.517 135.097 146.295 135.125C146.079 135.153 145.808 135.168 145.483 135.168ZM152.189 135.296C151.374 135.296 150.663 135.122 150.053 134.775C149.45 134.422 148.98 133.906 148.644 133.229C148.308 132.551 148.14 131.723 148.14 130.743C148.14 129.821 148.297 129.012 148.61 128.317C148.923 127.623 149.381 127.084 149.985 126.703C150.589 126.316 151.326 126.122 152.197 126.122C153.012 126.122 153.718 126.301 154.316 126.66C154.913 127.013 155.378 127.534 155.708 128.223C156.044 128.912 156.212 129.752 156.212 130.743C156.212 131.643 156.058 132.434 155.751 133.118C155.443 133.801 154.99 134.336 154.392 134.724C153.8 135.105 153.066 135.296 152.189 135.296ZM152.197 134.049C152.721 134.049 153.165 133.915 153.53 133.647C153.894 133.38 154.17 132.995 154.358 132.494C154.552 131.993 154.649 131.398 154.649 130.709C154.649 130.077 154.563 129.51 154.392 129.009C154.227 128.502 153.965 128.101 153.607 127.805C153.248 127.509 152.778 127.361 152.197 127.361C151.662 127.361 151.209 127.494 150.839 127.762C150.469 128.024 150.187 128.406 149.993 128.907C149.806 129.408 149.712 130.009 149.712 130.709C149.712 131.33 149.794 131.893 149.959 132.4C150.13 132.907 150.398 133.308 150.762 133.605C151.132 133.901 151.611 134.049 152.197 134.049Z" fill="#919EAB"/>
</svg>
