<svg width="16" height="18" viewBox="0 0 16 18" fill="none" xmlns="http://www.w3.org/2000/svg">
<path d="M7.99967 0.667969C6.72885 0.667969 5.51007 1.1728 4.61145 2.07142C3.71284 2.97003 3.20801 4.18881 3.20801 5.45963V7.95963C3.20781 9.17639 3.67051 10.3476 4.50222 11.2358C5.33393 12.1239 6.47236 12.6623 7.68651 12.7418C8.90066 12.8214 10.0996 12.436 11.04 11.664C11.9805 10.8919 12.592 9.79102 12.7505 8.58463H8.83301C8.66725 8.58463 8.50828 8.51879 8.39107 8.40158C8.27386 8.28437 8.20801 8.12539 8.20801 7.95963C8.20801 7.79387 8.27386 7.6349 8.39107 7.51769C8.50828 7.40048 8.66725 7.33463 8.83301 7.33463H12.7913V6.08463H8.83301C8.66725 6.08463 8.50828 6.01879 8.39107 5.90158C8.27386 5.78437 8.20801 5.6254 8.20801 5.45963C8.20801 5.29387 8.27386 5.1349 8.39107 5.01769C8.50828 4.90048 8.66725 4.83464 8.83301 4.83463H12.7505C12.5987 3.68205 12.0331 2.62394 11.1591 1.85739C10.2851 1.09084 9.16222 0.668121 7.99967 0.667969Z" fill="#637381"/>
<path fill-rule="evenodd" clip-rule="evenodd" d="M1.33301 6.5013C1.49877 6.5013 1.65774 6.56715 1.77495 6.68436C1.89216 6.80157 1.95801 6.96054 1.95801 7.1263V7.95963C1.95801 8.75304 2.11428 9.53867 2.4179 10.2717C2.72152 11.0047 3.16655 11.6707 3.72757 12.2317C4.28859 12.7928 4.95462 13.2378 5.68763 13.5414C6.42064 13.845 7.20627 14.0013 7.99967 14.0013C8.79308 14.0013 9.57871 13.845 10.3117 13.5414C11.0447 13.2378 11.7108 12.7928 12.2718 12.2317C12.8328 11.6707 13.2778 11.0047 13.5814 10.2717C13.8851 9.53867 14.0413 8.75304 14.0413 7.95963V7.1263C14.0413 6.96054 14.1072 6.80157 14.2244 6.68436C14.3416 6.56715 14.5006 6.5013 14.6663 6.5013C14.8321 6.5013 14.9911 6.56715 15.1083 6.68436C15.2255 6.80157 15.2913 6.96054 15.2913 7.1263V7.95963C15.2914 9.78534 14.6065 11.5446 13.3721 12.8898C12.1378 14.235 10.4437 15.0681 8.62467 15.2246V17.1263C8.62467 17.2921 8.55883 17.451 8.44162 17.5682C8.32441 17.6855 8.16543 17.7513 7.99967 17.7513C7.83391 17.7513 7.67494 17.6855 7.55773 17.5682C7.44052 17.451 7.37467 17.2921 7.37467 17.1263V15.2246C5.55569 15.0681 3.86159 14.235 2.6272 12.8898C1.39282 11.5446 0.707966 9.78534 0.708008 7.95963V7.1263C0.708008 6.96054 0.773856 6.80157 0.891066 6.68436C1.00828 6.56715 1.16725 6.5013 1.33301 6.5013Z" fill="#637381"/>
</svg>
