<svg width="18" height="21" viewBox="0 0 18 21" fill="none" xmlns="http://www.w3.org/2000/svg">
<path fill-rule="evenodd" clip-rule="evenodd" d="M4.843 2.302C6.872 1.101 7.886 0.5 9 0.5C10.114 0.5 11.128 1.1 13.157 2.302L13.843 2.708C15.872 3.91 16.886 4.511 17.443 5.5C18 6.49 18 7.69 18 10.094V10.906C18 13.309 18 14.511 17.443 15.5C16.886 16.49 15.872 17.09 13.843 18.291L13.157 18.698C11.128 19.899 10.114 20.5 9 20.5C7.886 20.5 6.872 19.9 4.843 18.698L4.157 18.291C2.128 17.091 1.114 16.489 0.557 15.5C-5.96046e-08 14.51 0 13.31 0 10.906V10.094C0 7.69 -5.96046e-08 6.489 0.557 5.5C1.114 4.51 2.128 3.91 4.157 2.708L4.843 2.302ZM10 14.5C10 14.7652 9.89464 15.0196 9.70711 15.2071C9.51957 15.3946 9.26522 15.5 9 15.5C8.73478 15.5 8.48043 15.3946 8.29289 15.2071C8.10536 15.0196 8 14.7652 8 14.5C8 14.2348 8.10536 13.9804 8.29289 13.7929C8.48043 13.6054 8.73478 13.5 9 13.5C9.26522 13.5 9.51957 13.6054 9.70711 13.7929C9.89464 13.9804 10 14.2348 10 14.5ZM9 4.75C9.19891 4.75 9.38968 4.82902 9.53033 4.96967C9.67098 5.11032 9.75 5.30109 9.75 5.5V11.5C9.75 11.6989 9.67098 11.8897 9.53033 12.0303C9.38968 12.171 9.19891 12.25 9 12.25C8.80109 12.25 8.61032 12.171 8.46967 12.0303C8.32902 11.8897 8.25 11.6989 8.25 11.5V5.5C8.25 5.30109 8.32902 5.11032 8.46967 4.96967C8.61032 4.82902 8.80109 4.75 9 4.75Z" fill="#FF5630"/>
</svg>
